<?xml version="1.0" encoding="utf-8"?>
<!-- Generator: Adobe Illustrator 16.0.3, SVG Export Plug-In . SVG Version: 6.00 Build 0)  -->
<!DOCTYPE svg PUBLIC "-//W3C//DTD SVG 1.1//EN" "http://www.w3.org/Graphics/SVG/1.1/DTD/svg11.dtd">
<svg version="1.1" id="Layer_1" xmlns="http://www.w3.org/2000/svg" xmlns:xlink="http://www.w3.org/1999/xlink" x="0px" y="0px"
	 width="18px" height="20px" viewBox="0 0 18 20" enable-background="new 0 0 18 20" xml:space="preserve">
<title>trash-o</title>
<path fill="#7D878D" d="M6.545,7.774v7.363c0,0.23-0.179,0.41-0.409,0.41H5.318c-0.23,0-0.409-0.18-0.409-0.41V7.774
	c0-0.23,0.179-0.409,0.409-0.409h0.818C6.366,7.365,6.545,7.543,6.545,7.774z M9.818,7.774v7.363c0,0.23-0.18,0.41-0.409,0.41H8.591
	c-0.23,0-0.409-0.18-0.409-0.41V7.774c0-0.23,0.179-0.409,0.409-0.409h0.818C9.639,7.365,9.818,7.543,9.818,7.774z M13.091,7.774
	v7.363c0,0.23-0.179,0.41-0.409,0.41h-0.818c-0.23,0-0.408-0.18-0.408-0.41V7.774c0-0.23,0.178-0.409,0.408-0.409h0.818
	C12.912,7.365,13.091,7.543,13.091,7.774z M14.728,17.029V4.911H3.273v12.119c0,0.613,0.345,0.973,0.409,0.973h10.636
	C14.382,18.002,14.728,17.643,14.728,17.029z M6.136,3.274h5.727L11.25,1.778c-0.038-0.051-0.153-0.127-0.217-0.141H6.98
	C6.903,1.65,6.801,1.727,6.762,1.778L6.136,3.274z M18,3.683v0.818c0,0.23-0.179,0.409-0.409,0.409h-1.227v12.119
	c0,1.408-0.921,2.607-2.046,2.607H3.682c-1.125,0-2.046-1.15-2.046-2.557V4.909H0.409C0.179,4.909,0,4.73,0,4.5V3.682
	c0-0.23,0.179-0.409,0.409-0.409h3.95l0.895-2.135C5.51,0.512,6.277,0,6.955,0h4.09c0.678,0,1.444,0.512,1.701,1.138l0.895,2.135
	h3.95C17.821,3.273,18,3.452,18,3.683L18,3.683z"/>
</svg>
